<svg width="19" height="19" viewBox="0 0 19 19" fill="none" xmlns="http://www.w3.org/2000/svg">
<path d="M9.88 15.4692L14.63 12.8804C14.7011 12.8254 14.7698 12.7673 14.8358 12.7062C14.8667 12.6699 14.8933 12.63 14.915 12.5875C14.9448 12.5461 14.9688 12.5008 14.9863 12.4529C14.99 12.4002 14.99 12.3473 14.9863 12.2946C14.9891 12.2603 14.9891 12.2259 14.9863 12.1917V6.80833C14.9836 6.71607 14.9649 6.62497 14.9308 6.53917C14.9338 6.51551 14.9338 6.49157 14.9308 6.46792C14.8982 6.39443 14.8526 6.3274 14.7963 6.27C14.7436 6.22086 14.6851 6.17832 14.6221 6.14333L9.87208 3.55458C9.75173 3.4851 9.61522 3.44852 9.47625 3.44852C9.33728 3.44852 9.20077 3.4851 9.08042 3.55458L4.33042 6.14333C4.26743 6.17832 4.20894 6.22086 4.15625 6.27C4.09992 6.3274 4.05434 6.39443 4.02167 6.46792C4.01869 6.49157 4.01869 6.51551 4.02167 6.53917C3.98493 6.62448 3.96349 6.71559 3.95833 6.80833V12.1917C3.95551 12.2259 3.95551 12.2603 3.95833 12.2946C3.95461 12.3473 3.95461 12.4002 3.95833 12.4529C3.97578 12.5008 3.99975 12.5461 4.02958 12.5875C4.05129 12.63 4.07786 12.6699 4.10875 12.7062C4.14508 12.7494 4.1878 12.7868 4.23542 12.8171C4.25982 12.8406 4.28631 12.8618 4.31458 12.8804L9.06458 15.4692H9.11208C9.11208 15.4692 9.15167 15.4692 9.17542 15.4692C9.26044 15.5058 9.35202 15.5246 9.44458 15.5246C9.53714 15.5246 9.62873 15.5058 9.71375 15.4692C9.71375 15.4692 9.76125 15.4692 9.77708 15.4692H9.88ZM5.54167 8.14625L8.70833 9.86417V13.4583L5.54167 11.7404V8.14625ZM10.2917 9.86417L13.4583 8.14625V11.7246L10.2917 13.4583V9.86417ZM9.5 5.11417L12.5717 6.7925L9.5 8.49458L6.42833 6.80833L9.5 5.11417ZM0 5.035V2.375C0 1.74511 0.250223 1.14102 0.695621 0.695621C1.14102 0.250223 1.74511 0 2.375 0H5.05083C5.2608 0 5.46216 0.0834077 5.61063 0.231874C5.75909 0.38034 5.8425 0.581704 5.8425 0.791667C5.8425 1.00163 5.75909 1.20299 5.61063 1.35146C5.46216 1.49993 5.2608 1.58333 5.05083 1.58333H2.375C2.16504 1.58333 1.96367 1.66674 1.81521 1.81521C1.66674 1.96367 1.58333 2.16504 1.58333 2.375V5.05083C1.58333 5.2608 1.49993 5.46216 1.35146 5.61063C1.20299 5.75909 1.00163 5.8425 0.791667 5.8425C0.581704 5.8425 0.38034 5.75909 0.231874 5.61063C0.0834077 5.46216 0 5.2608 0 5.05083V5.035ZM19 2.375V5.05083C19 5.2608 18.9166 5.46216 18.7681 5.61063C18.6197 5.75909 18.4183 5.8425 18.2083 5.8425C17.9984 5.8425 17.797 5.75909 17.6485 5.61063C17.5001 5.46216 17.4167 5.2608 17.4167 5.05083V2.375C17.4167 2.16504 17.3333 1.96367 17.1848 1.81521C17.0363 1.66674 16.835 1.58333 16.625 1.58333H13.9492C13.7392 1.58333 13.5378 1.49993 13.3894 1.35146C13.2409 1.20299 13.1575 1.00163 13.1575 0.791667C13.1575 0.581704 13.2409 0.38034 13.3894 0.231874C13.5378 0.0834077 13.7392 0 13.9492 0H16.625C17.2549 0 17.859 0.250223 18.3044 0.695621C18.7498 1.14102 19 1.74511 19 2.375ZM19 13.9413V16.625C19 17.2549 18.7498 17.859 18.3044 18.3044C17.859 18.7498 17.2549 19 16.625 19H13.9492C13.7392 19 13.5378 18.9166 13.3894 18.7681C13.2409 18.6197 13.1575 18.4183 13.1575 18.2083C13.1575 17.9984 13.2409 17.797 13.3894 17.6485C13.5378 17.5001 13.7392 17.4167 13.9492 17.4167H16.625C16.835 17.4167 17.0363 17.3333 17.1848 17.1848C17.3333 17.0363 17.4167 16.835 17.4167 16.625V13.9413C17.4167 13.7313 17.5001 13.5299 17.6485 13.3815C17.797 13.233 17.9984 13.1496 18.2083 13.1496C18.4183 13.1496 18.6197 13.233 18.7681 13.3815C18.9166 13.5299 19 13.7313 19 13.9413ZM5.8425 18.2083C5.8425 18.4183 5.75909 18.6197 5.61063 18.7681C5.46216 18.9166 5.2608 19 5.05083 19H2.375C1.74511 19 1.14102 18.7498 0.695621 18.3044C0.250223 17.859 0 17.2549 0 16.625V13.9492C0 13.7392 0.0834077 13.5378 0.231874 13.3894C0.38034 13.2409 0.581704 13.1575 0.791667 13.1575C1.00163 13.1575 1.20299 13.2409 1.35146 13.3894C1.49993 13.5378 1.58333 13.7392 1.58333 13.9492V16.625C1.58333 16.835 1.66674 17.0363 1.81521 17.1848C1.96367 17.3333 2.16504 17.4167 2.375 17.4167H5.05083C5.2608 17.4167 5.46216 17.5001 5.61063 17.6485C5.75909 17.797 5.8425 17.9984 5.8425 18.2083Z" fill="white"/>
</svg>
