<svg width="24" height="24" viewBox="0 0 24 24" fill="none" xmlns="http://www.w3.org/2000/svg">
<g clip-path="url(#clip0_78_848)">
<path fill-rule="evenodd" clip-rule="evenodd" d="M0.625004 0.625004C1.45834 -0.208335 2.80835 -0.208335 3.64155 0.625004L12 8.98345L20.3584 0.625004C21.1918 -0.208335 22.5418 -0.208335 23.375 0.625004C24.2082 1.45834 24.2083 2.80835 23.375 3.64155L15.0166 12L23.375 20.3584C24.2083 21.1918 24.2083 22.5418 23.375 23.375C22.5417 24.2082 21.1917 24.2083 20.3584 23.375L12 15.0166L3.64155 23.375C2.80822 24.2083 1.45821 24.2083 0.625004 23.375C-0.208201 22.5417 -0.208335 21.1917 0.625004 20.3584L8.98345 12L0.625004 3.64155C-0.208335 2.80822 -0.208335 1.45821 0.625004 0.625004Z" fill="black"/>
</g>
<defs>
<clipPath id="clip0_78_848">
<rect width="24" height="24" fill="white"/>
</clipPath>
</defs>
</svg>
