<svg width="40" height="40" viewBox="0 0 40 40" fill="none" xmlns="http://www.w3.org/2000/svg">
<g clip-path="url(#clip0_12_265)">
<path d="M36.8447 6.34666L29.6205 6.34666C29.4559 6.34666 29.2981 6.41252 29.1818 6.52974C29.0654 6.64696 29.0001 6.80594 29.0001 6.97171C29.0001 7.13749 29.0654 7.29647 29.1818 7.41369C29.2981 7.53091 29.4559 7.59676 29.6205 7.59676L36.8459 7.59677L35.9319 8.51851C35.8156 8.63587 35.7503 8.79499 35.7504 8.96086C35.7505 9.12672 35.816 9.28575 35.9325 9.40295C36.049 9.52015 36.2069 9.58593 36.3716 9.58582C36.5362 9.5857 36.694 9.5197 36.8104 9.40233L38.782 7.41383C38.8983 7.29662 38.9636 7.13766 38.9636 6.97192C38.9636 6.80618 38.8983 6.64723 38.782 6.53001L36.8104 4.54318C36.694 4.42587 36.5361 4.35994 36.3715 4.35991C36.2069 4.35987 36.049 4.42572 35.9325 4.54298C35.8161 4.66023 35.7506 4.81929 35.7506 4.98516C35.7506 5.15102 35.8159 5.31011 35.9323 5.42742L36.8447 6.34666Z" fill="white"/>
<path d="M29.6205 6.34666L36.8447 6.34666L35.9323 5.42742C35.8159 5.31011 35.7506 5.15102 35.7506 4.98516C35.7506 4.81929 35.8161 4.66023 35.9325 4.54298C36.049 4.42572 36.2069 4.35987 36.3715 4.35991C36.5361 4.35994 36.694 4.42587 36.8104 4.54318L38.782 6.53001C38.8983 6.64723 38.9636 6.80618 38.9636 6.97192C38.9636 7.13766 38.8983 7.29662 38.782 7.41383L36.8104 9.40233C36.694 9.5197 36.5362 9.5857 36.3716 9.58582C36.2069 9.58593 36.049 9.52015 35.9325 9.40295C35.816 9.28575 35.7505 9.12672 35.7504 8.96086C35.7503 8.79499 35.8156 8.63587 35.9319 8.51851L36.8459 7.59677L29.6205 7.59676C29.4559 7.59676 29.2981 7.53091 29.1818 7.41369C29.0654 7.29647 29.0001 7.13749 29.0001 6.97171C29.0001 6.80594 29.0654 6.64696 29.1818 6.52974C29.2981 6.41252 29.4559 6.34666 29.6205 6.34666Z" fill="white"/>
<path d="M4.11892 7.59901L11.3432 7.59901C11.5077 7.59901 11.6655 7.53316 11.7819 7.41594C11.8982 7.29872 11.9636 7.13974 11.9636 6.97396C11.9636 6.80819 11.8982 6.64921 11.7819 6.53199C11.6655 6.41477 11.5077 6.34891 11.3432 6.34891L4.11768 6.34891L5.03172 5.42717C5.14805 5.3098 5.21334 5.15069 5.21322 4.98482C5.2131 4.81895 5.14759 4.65993 5.0311 4.54273C4.91461 4.42552 4.75667 4.35975 4.59204 4.35986C4.42742 4.35998 4.26958 4.42598 4.15325 4.54335L2.18164 6.53185C2.06534 6.64906 2 6.80802 2 6.97376C2 7.1395 2.06534 7.29845 2.18164 7.41567L4.15325 9.40249C4.26963 9.51981 4.4275 9.58573 4.59213 9.58577C4.75676 9.58581 4.91466 9.51996 5.0311 9.4027C5.14754 9.28545 5.21297 9.12639 5.21301 8.96052C5.21305 8.79466 5.14769 8.63557 5.03131 8.51826L4.11892 7.59901Z" fill="white"/>
<path d="M11.3432 7.59901L4.11892 7.59901L5.03131 8.51826C5.14769 8.63557 5.21305 8.79466 5.21301 8.96052C5.21297 9.12639 5.14754 9.28545 5.0311 9.4027C4.91466 9.51996 4.75676 9.58581 4.59213 9.58577C4.4275 9.58573 4.26963 9.51981 4.15325 9.40249L2.18164 7.41567C2.06534 7.29845 2 7.1395 2 6.97376C2 6.80802 2.06534 6.64906 2.18164 6.53185L4.15325 4.54335C4.26958 4.42598 4.42742 4.35998 4.59204 4.35986C4.75667 4.35975 4.91461 4.42552 5.0311 4.54273C5.14759 4.65993 5.2131 4.81895 5.21322 4.98482C5.21334 5.15069 5.14805 5.3098 5.03172 5.42717L4.11768 6.34891L11.3432 6.34891C11.5077 6.34891 11.6655 6.41477 11.7819 6.53199C11.8982 6.64921 11.9636 6.80819 11.9636 6.97396C11.9636 7.13974 11.8982 7.29872 11.7819 7.41594C11.6655 7.53316 11.5077 7.59901 11.3432 7.59901Z" fill="white"/>
<path d="M18.308 6.96533C18.3045 6.6632 18.3608 6.36346 18.473 6.0835C18.5853 5.80349 18.7519 5.54885 18.9623 5.33447C19.1727 5.12008 19.4229 4.94938 19.6986 4.8335C19.9743 4.71762 20.2702 4.65854 20.5687 4.65869C20.8673 4.65885 21.1632 4.7183 21.4388 4.83447C21.7142 4.95057 21.9641 5.12107 22.1742 5.33545C22.3844 5.55003 22.5504 5.80534 22.6625 6.08545C22.7745 6.36563 22.8304 6.66601 22.8265 6.96826V6.97412L22.8207 15.856V16.7456L23.5804 16.2827C23.9612 16.0513 24.398 15.9307 24.8422 15.9321H24.8461L24.851 15.9312C25.4166 15.9247 25.9655 16.1269 26.3959 16.4985H26.3969C26.4825 16.5749 26.5621 16.6579 26.6342 16.7476L26.9994 17.2017L27.3929 16.772C27.6133 16.5313 27.8811 16.3398 28.1791 16.2104C28.4771 16.081 28.7992 16.0162 29.1234 16.02H29.1371C29.7028 16.0137 30.2519 16.2154 30.682 16.5874C30.8911 16.7758 31.0615 17.0044 31.182 17.2603C31.3029 17.5169 31.3709 17.7956 31.3832 18.0796L31.4213 18.9575L32.1566 18.4761C32.1898 18.4543 32.212 18.4392 32.2338 18.4263C32.5636 18.2378 32.9371 18.1399 33.3158 18.1411C33.6963 18.1424 34.0701 18.2446 34.3998 18.437C34.7489 18.6518 35.0356 18.9572 35.2289 19.3218C35.4236 19.689 35.5161 20.1027 35.4974 20.519V20.5415L35.4906 27.0386V27.0396C35.4916 29.443 34.6255 31.7642 33.0551 33.5718C31.9766 34.7769 31.3958 36.3504 31.4291 37.9712V37.9722L31.4398 39.3735C31.44 39.3906 31.4364 39.4078 31.4301 39.4233C31.4238 39.4388 31.415 39.4528 31.4037 39.4644C31.3924 39.4758 31.3789 39.4847 31.3646 39.4907C31.3502 39.4967 31.3341 39.5005 31.3187 39.5005H19.3949C19.3796 39.5005 19.3643 39.4967 19.35 39.4907C19.3356 39.4847 19.3222 39.4758 19.3109 39.4644C19.2995 39.4528 19.2899 39.4389 19.2836 39.4233C19.2773 39.4078 19.2746 39.3905 19.2748 39.3735L19.2855 37.98C19.3197 36.4569 18.8087 34.975 17.851 33.8032L17.6537 33.5728C16.7066 32.48 16.2471 31.3718 15.7787 30.0552L15.5756 29.4761C14.7494 26.8466 13.4691 24.384 11.7943 22.2017C11.1612 21.36 11.0085 20.6641 11.0648 20.144C11.1146 19.6856 11.3321 19.3125 11.6185 19.0483L11.7455 18.9419C12.696 18.2148 14.5311 18.2894 15.7513 19.7632L15.8666 19.9097L17.3969 21.9438L18.2953 23.1372L18.2963 21.6431L18.308 6.97119V6.96533Z" fill="white" stroke="black"/>
<path d="M20.5199 0.5C21.7905 0.499254 23.033 0.878441 24.0902 1.58984C25.1474 2.30132 25.9718 3.3134 26.4584 4.49805C26.945 5.68276 27.072 6.98662 26.8226 8.24414C26.5732 9.50171 25.9586 10.6557 25.058 11.5605L25.0521 11.5674C25.0409 11.5791 25.0274 11.5885 25.0131 11.5947C24.9986 11.601 24.9826 11.6044 24.9672 11.6045C24.9519 11.6046 24.9366 11.6016 24.9222 11.5957C24.9078 11.5898 24.8946 11.5808 24.8832 11.5693C24.8718 11.5578 24.8622 11.5438 24.8558 11.5283C24.8495 11.5127 24.8459 11.4956 24.8461 11.4785C24.8462 11.4614 24.8502 11.4442 24.8568 11.4287C24.8634 11.4134 24.8727 11.3999 24.8842 11.3887L24.89 11.3828C25.7559 10.5128 26.3459 9.40336 26.5853 8.19629C26.8246 6.98941 26.7028 5.73808 26.2357 4.60059C25.7686 3.46289 24.9765 2.48945 23.9594 1.80469C22.9422 1.12001 21.7458 0.754484 20.5219 0.754883C19.2977 0.755328 18.1011 1.12208 17.0844 1.80762C16.0678 2.49311 15.2762 3.46655 14.8099 4.60449C14.3436 5.74249 14.223 6.9943 14.4633 8.20117C14.7035 9.40796 15.2942 10.5164 16.1605 11.3857L16.1615 11.3867C16.1785 11.4039 16.1907 11.4264 16.1957 11.4512C16.2006 11.4761 16.1984 11.5021 16.1888 11.5254C16.1793 11.5486 16.1627 11.5678 16.1429 11.5811C16.1233 11.5942 16.1004 11.6016 16.0775 11.6016C16.0622 11.6016 16.0468 11.5987 16.0326 11.5928L15.9945 11.5664C15.0928 10.6626 14.4769 9.50922 14.226 8.25195C13.975 6.99467 14.1001 5.69025 14.5853 4.50488C15.0706 3.31965 15.8942 2.30649 16.9506 1.59375C18.0069 0.881092 19.2493 0.500758 20.5199 0.5Z" fill="white" stroke="white"/>
</g>
<defs>
<clipPath id="clip0_12_265">
<rect width="40" height="40" fill="white"/>
</clipPath>
</defs>
</svg>
