<svg width="22" height="22" viewBox="0 0 22 22" fill="none" xmlns="http://www.w3.org/2000/svg">
<path fill-rule="evenodd" clip-rule="evenodd" d="M17.6503 0.147605C17.8499 -0.0511218 18.172 -0.0488971 18.3689 0.152548C18.5661 0.353994 18.5639 0.679025 18.364 0.877752C18.364 0.877752 14.6383 4.58657 12.764 6.47793C11.5925 7.66016 11.6635 8.28427 11.6814 8.84387C11.699 9.39704 11.6691 9.90176 11.0083 10.5684C10.0778 11.5076 2.26798 18.9406 1.53023 19.6851C1.17018 20.0484 1.07245 20.3937 1.20398 20.6542C1.38205 21.007 1.90523 21.0977 2.29125 20.7081C3.95658 19.0276 10.1772 12.7096 11.5259 11.3487C12.2345 10.6336 12.7633 10.6527 13.3345 10.7362C13.6029 10.7758 13.8861 10.8509 14.2442 10.7612C14.6192 10.6673 15.0618 10.3976 15.6545 9.79919C17.9439 7.48911 21.1289 4.20741 21.1289 4.20741C21.325 4.00522 21.6471 4.00176 21.8475 4.19999C22.0479 4.39798 22.0513 4.72301 21.8548 4.9252C21.8548 4.9252 18.6658 8.2111 16.3732 10.5246C15.037 11.873 14.2074 11.8858 13.5341 11.8023C13.102 11.7486 12.7491 11.5647 12.2445 12.0739C10.8961 13.4348 4.67547 19.7528 3.01014 21.4336C2.0424 22.4102 0.744966 22.0046 0.298201 21.1199C0.0128495 20.5549 0.029995 19.7484 0.811344 18.9596C1.54934 18.2152 9.35915 10.7824 10.2897 9.84318C10.7893 9.33895 10.6585 8.97759 10.6551 8.53119C10.6502 7.87223 10.7526 7.05706 12.0451 5.75273C13.9211 3.85964 17.6503 0.147605 17.6503 0.147605ZM18.7691 1.57379C18.9675 1.37358 19.2896 1.37358 19.488 1.57379C19.6862 1.774 19.6862 2.09878 19.488 2.29899L14.7193 7.11119C14.5209 7.3114 14.1989 7.3114 14.0005 7.11119C13.8023 6.91098 13.8023 6.58619 14.0005 6.38598L18.7691 1.57379ZM19.9323 2.85587C20.1307 2.65566 20.4528 2.65566 20.6512 2.85587C20.8494 3.05608 20.8494 3.38111 20.6512 3.58107L15.9249 8.35076C15.7265 8.55072 15.4044 8.55072 15.206 8.35076C15.0076 8.15055 15.0076 7.82552 15.206 7.62531L19.9323 2.85587ZM9.53869 9.44598L7.33009 11.5351C7.1917 11.6661 6.99233 11.7083 6.81352 11.6446C4.98041 10.992 2.1847 8.77367 0.825795 6.24238C-0.133623 4.45483 -0.381499 2.52268 0.755498 0.844383C0.840491 0.719067 0.975941 0.637994 1.1256 0.623411C1.27525 0.608581 1.42369 0.661476 1.53097 0.76776L9.54702 8.7057C9.64597 8.80358 9.70084 8.93779 9.69937 9.07769C9.69765 9.21734 9.6396 9.35032 9.53869 9.44598ZM8.4568 9.06335L1.2924 1.96852C0.761866 3.17868 1.05163 4.50945 1.71957 5.75372C2.88669 7.92784 5.20992 9.85925 6.86814 10.5662L8.4568 9.06335ZM13.296 12.8525C13.296 12.8525 18.6023 17.6882 19.8525 18.7886C20.2914 19.1749 20.4477 19.6176 20.4379 20.0341C20.4234 20.6345 20.0325 21.2062 19.5044 21.51C18.8808 21.8686 18.1041 21.8624 17.5662 21.2321C16.6676 20.1789 11.506 14.6756 11.506 14.6756C11.3169 14.474 11.3211 14.1571 11.5158 13.9606L12.596 12.8705C12.7875 12.6773 13.0952 12.6693 13.296 12.8525ZM12.9734 13.9403L12.584 14.3333C13.7518 15.5808 17.5734 19.6683 18.3366 20.5628C18.5198 20.7773 18.7885 20.741 19.0008 20.6189C19.225 20.4901 19.4155 20.264 19.4216 20.0094C19.4253 19.8559 19.346 19.7039 19.1843 19.5615C18.1289 18.6326 14.1878 15.0462 12.9734 13.9403Z" fill="black"/>
</svg>
